<mxfile modified="2022-05-24T09:27:27.023Z" host="app.diagrams.net" agent="5.0 (Macintosh; Intel Mac OS X 10_15_7) AppleWebKit/605.1.15 (KHTML, like Gecko) Version/15.2 Safari/605.1.15" etag="d305rVBnwQUSlyMJsCBV" version="18.1.2" type="github">
  <diagram id="f106602c-feb2-e66a-4537-3a34d633f6aa" name="Page-1">
    <mxGraphModel dx="1093" dy="646" grid="1" gridSize="10" guides="1" tooltips="1" connect="1" arrows="1" fold="1" page="1" pageScale="1" pageWidth="1169" pageHeight="827" background="none" math="0" shadow="0">
      <root>
        <mxCell id="0" />
        <mxCell id="1" parent="0" />
        <mxCell id="14" value="&lt;b&gt;CI/CD&lt;/b&gt;&amp;nbsp;Workflow" style="fillColor=#F6F6F6;strokeColor=none;shadow=0;gradientColor=none;fontSize=14;align=left;spacing=10;fontColor=#717171;9E9E9E;verticalAlign=top;spacingTop=-4;fontStyle=0;spacingLeft=40;html=1;container=0;" parent="1" vertex="1">
          <mxGeometry x="230" y="74" width="870" height="416" as="geometry" />
        </mxCell>
        <mxCell id="756" value="US Team" style="rounded=1;absoluteArcSize=1;arcSize=2;html=1;strokeColor=none;gradientColor=none;shadow=0;dashed=0;strokeColor=none;fontSize=12;fontColor=#9E9E9E;align=left;verticalAlign=top;spacing=10;spacingTop=-4;fillColor=#F1F8E9;" parent="1" vertex="1">
          <mxGeometry x="70" y="90" width="90" height="120" as="geometry" />
        </mxCell>
        <mxCell id="757" style="edgeStyle=orthogonalEdgeStyle;rounded=0;html=1;labelBackgroundColor=none;startFill=1;startSize=4;endArrow=blockThin;endFill=1;endSize=4;jettySize=auto;orthogonalLoop=1;strokeColor=#4284F3;strokeWidth=2;fontSize=12;fontColor=#000000;align=center;dashed=0;" parent="1" source="734" edge="1">
          <mxGeometry relative="1" as="geometry">
            <mxPoint x="254" y="420" as="targetPoint" />
            <Array as="points">
              <mxPoint x="200" y="420" />
              <mxPoint x="200" y="420" />
            </Array>
          </mxGeometry>
        </mxCell>
        <mxCell id="734" value="Dev&amp;nbsp;Team" style="rounded=1;absoluteArcSize=1;arcSize=2;html=1;strokeColor=#6c8ebf;shadow=0;dashed=0;strokeColor=none;fontSize=12;align=left;verticalAlign=top;spacing=10;spacingTop=-4;fillColor=#dae8fc;" parent="1" vertex="1">
          <mxGeometry x="70" y="368" width="90" height="120" as="geometry" />
        </mxCell>
        <mxCell id="732" value="" style="strokeColor=#dddddd;fillColor=#ffffff;shadow=1;strokeWidth=1;rounded=1;absoluteArcSize=1;arcSize=2;labelPosition=center;verticalLabelPosition=middle;align=center;verticalAlign=bottom;spacingLeft=0;fontColor=#999999;fontSize=12;whiteSpace=wrap;spacingBottom=2;html=1;" parent="1" vertex="1">
          <mxGeometry x="80" y="406" width="70" height="70" as="geometry" />
        </mxCell>
        <mxCell id="733" value="" style="dashed=0;connectable=0;html=1;fillColor=#757575;strokeColor=none;shape=mxgraph.gcp2.laptop;part=1;" parent="732" vertex="1">
          <mxGeometry x="0.5" width="50" height="33" relative="1" as="geometry">
            <mxPoint x="-25" y="18.5" as="offset" />
          </mxGeometry>
        </mxCell>
        <mxCell id="767" style="edgeStyle=orthogonalEdgeStyle;rounded=0;html=1;labelBackgroundColor=none;startFill=1;startSize=4;endArrow=blockThin;endFill=1;endSize=4;jettySize=auto;orthogonalLoop=1;strokeColor=#9E9E9E;strokeWidth=2;fontSize=12;fontColor=#000000;align=center;dashed=0;" parent="1" edge="1">
          <mxGeometry relative="1" as="geometry">
            <mxPoint x="170" y="160" as="sourcePoint" />
            <mxPoint x="680" y="160" as="targetPoint" />
            <Array as="points">
              <mxPoint x="560" y="160" />
              <mxPoint x="560" y="160" />
            </Array>
          </mxGeometry>
        </mxCell>
        <mxCell id="768" style="edgeStyle=orthogonalEdgeStyle;rounded=0;html=1;labelBackgroundColor=none;startFill=1;startSize=4;endArrow=blockThin;endFill=1;endSize=4;jettySize=auto;orthogonalLoop=1;strokeColor=#9E9E9E;strokeWidth=2;fontSize=12;fontColor=#000000;align=center;dashed=0;" parent="1" source="751" edge="1">
          <mxGeometry relative="1" as="geometry">
            <mxPoint x="440" y="292" as="targetPoint" />
          </mxGeometry>
        </mxCell>
        <mxCell id="771" value="1" style="shape=ellipse;fillColor=#ffffff;strokeColor=#BDBDBD;strokeWidth=2;shadow=0;gradientColor=none;fontColor=#757575;align=center;html=1;fontStyle=1;spacingTop=-1;" parent="1" vertex="1">
          <mxGeometry x="182.5" y="393" width="20" height="20" as="geometry" />
        </mxCell>
        <mxCell id="774" value="4" style="shape=ellipse;fillColor=#ffffff;strokeColor=#BDBDBD;strokeWidth=2;shadow=0;gradientColor=none;fontColor=#757575;align=center;html=1;fontStyle=1;spacingTop=-1;" parent="1" vertex="1">
          <mxGeometry x="650" y="259.5" width="20" height="20" as="geometry" />
        </mxCell>
        <mxCell id="775" value="5" style="shape=ellipse;fillColor=#ffffff;strokeColor=#BDBDBD;strokeWidth=2;shadow=0;gradientColor=none;fontColor=#757575;align=center;html=1;fontStyle=1;spacingTop=-1;" parent="1" vertex="1">
          <mxGeometry x="731" y="219" width="20" height="20" as="geometry" />
        </mxCell>
        <mxCell id="776" value="6" style="shape=ellipse;fillColor=#ffffff;strokeColor=#BDBDBD;strokeWidth=2;shadow=0;gradientColor=none;fontColor=#757575;align=center;html=1;fontStyle=1;spacingTop=-1;" parent="1" vertex="1">
          <mxGeometry x="867" y="119" width="20" height="20" as="geometry" />
        </mxCell>
        <mxCell id="779" value="" style="fillColor=#ffffff;strokeColor=#BDBDBD;strokeWidth=1;shadow=0;gradientColor=none;fontSize=10;fontColor=#9E9E9E;align=center;html=1;" parent="1" vertex="1">
          <mxGeometry x="230" y="510" width="600" height="70" as="geometry" />
        </mxCell>
        <mxCell id="780" value="1 Commit code" style="strokeColor=none;fillColor=none;fontColor=#757575;align=left;html=1;fontStyle=0;spacingLeft=5;fontSize=11;verticalAlign=top;whiteSpace=wrap;spacingRight=5;" parent="779" vertex="1">
          <mxGeometry width="200" height="30" relative="1" as="geometry" />
        </mxCell>
        <mxCell id="781" value="2 Merge code to Release branch" style="strokeColor=none;fillColor=none;fontColor=#757575;align=left;html=1;fontStyle=0;spacingLeft=5;fontSize=11;verticalAlign=top;whiteSpace=wrap;spacingRight=5;" parent="779" vertex="1">
          <mxGeometry width="200" height="30" relative="1" as="geometry">
            <mxPoint y="30" as="offset" />
          </mxGeometry>
        </mxCell>
        <mxCell id="782" value="3 Devops excuse workflow from Release" style="strokeColor=none;fillColor=none;fontColor=#757575;align=left;html=1;fontStyle=0;spacingLeft=5;fontSize=11;verticalAlign=top;whiteSpace=wrap;spacingRight=5;" parent="779" vertex="1">
          <mxGeometry width="200" height="30" relative="1" as="geometry">
            <mxPoint x="200" as="offset" />
          </mxGeometry>
        </mxCell>
        <mxCell id="783" value="4 Integrate strengthen code to Secure Branch" style="strokeColor=none;fillColor=none;fontColor=#757575;align=left;html=1;fontStyle=0;spacingLeft=5;fontSize=11;verticalAlign=top;whiteSpace=wrap;spacingRight=5;" parent="779" vertex="1">
          <mxGeometry width="200" height="30" relative="1" as="geometry">
            <mxPoint x="200" y="30" as="offset" />
          </mxGeometry>
        </mxCell>
        <mxCell id="784" value="5 Bitrise Platform deliver target file&amp;nbsp;" style="strokeColor=none;fillColor=none;fontColor=#757575;align=left;html=1;fontStyle=0;spacingLeft=5;fontSize=11;verticalAlign=top;whiteSpace=wrap;spacingRight=5;" parent="779" vertex="1">
          <mxGeometry width="200" height="30" relative="1" as="geometry">
            <mxPoint x="400" as="offset" />
          </mxGeometry>
        </mxCell>
        <mxCell id="785" value="6 Perform" style="strokeColor=none;fillColor=none;fontColor=#757575;align=left;html=1;fontStyle=0;spacingLeft=5;fontSize=11;verticalAlign=top;whiteSpace=wrap;spacingRight=5;" parent="779" vertex="1">
          <mxGeometry width="200" height="30" relative="1" as="geometry">
            <mxPoint x="400" y="30" as="offset" />
          </mxGeometry>
        </mxCell>
        <mxCell id="ojXj5y6HiEK-yapRCw0R-785" value="OPS Team" style="rounded=1;absoluteArcSize=1;arcSize=2;html=1;strokeColor=#d6b656;shadow=0;dashed=0;strokeColor=none;fontSize=12;align=left;verticalAlign=top;spacing=10;spacingTop=-4;fillColor=#fff2cc;" vertex="1" parent="1">
          <mxGeometry x="70" y="222.5" width="90" height="117.5" as="geometry" />
        </mxCell>
        <mxCell id="ojXj5y6HiEK-yapRCw0R-786" value="Manager" style="strokeColor=#dddddd;shadow=1;strokeWidth=1;rounded=1;absoluteArcSize=1;arcSize=2;labelPosition=center;verticalLabelPosition=middle;align=center;verticalAlign=bottom;spacingLeft=0;fontColor=#999999;fontSize=12;whiteSpace=wrap;spacingBottom=2;" vertex="1" parent="1">
          <mxGeometry x="80" y="124" width="70" height="75" as="geometry" />
        </mxCell>
        <mxCell id="ojXj5y6HiEK-yapRCw0R-787" value="" style="sketch=0;dashed=0;connectable=0;html=1;fillColor=#757575;strokeColor=none;shape=mxgraph.gcp2.users;part=1;" vertex="1" parent="ojXj5y6HiEK-yapRCw0R-786">
          <mxGeometry x="0.5" width="50" height="31.5" relative="1" as="geometry">
            <mxPoint x="-25" y="19.25" as="offset" />
          </mxGeometry>
        </mxCell>
        <mxCell id="751" value="" style="strokeColor=#dddddd;fillColor=#ffffff;shadow=1;strokeWidth=1;rounded=1;absoluteArcSize=1;arcSize=2;labelPosition=center;verticalLabelPosition=middle;align=center;verticalAlign=bottom;spacingLeft=0;fontColor=#999999;fontSize=12;whiteSpace=wrap;spacingBottom=2;html=1;" parent="1" vertex="1">
          <mxGeometry x="80" y="259.5" width="70" height="65" as="geometry" />
        </mxCell>
        <mxCell id="752" value="" style="dashed=0;connectable=0;html=1;fillColor=#757575;strokeColor=none;shape=mxgraph.gcp2.mobile_devices;part=1;" parent="751" vertex="1">
          <mxGeometry x="0.5" width="50" height="36.5" relative="1" as="geometry">
            <mxPoint x="-25" y="16.75" as="offset" />
          </mxGeometry>
        </mxCell>
        <mxCell id="754" value="Deployment" style="rounded=1;absoluteArcSize=1;arcSize=2;html=1;strokeColor=none;gradientColor=none;shadow=0;dashed=0;strokeColor=none;fontSize=12;fontColor=#9E9E9E;align=left;verticalAlign=top;spacing=10;spacingTop=-4;fillColor=#E1F5FE;" parent="1" vertex="1">
          <mxGeometry x="681.5" y="84" width="175" height="120" as="geometry" />
        </mxCell>
        <mxCell id="15" value="" style="shape=mxgraph.gcp2.google_cloud_platform;fillColor=#F6F6F6;strokeColor=none;shadow=0;gradientColor=none;" parent="1" vertex="1">
          <mxGeometry x="250" y="84" width="23" height="20" as="geometry">
            <mxPoint x="20" y="10" as="offset" />
          </mxGeometry>
        </mxCell>
        <mxCell id="747" value="" style="strokeColor=#dddddd;fillColor=#ffffff;shadow=1;strokeWidth=1;rounded=1;absoluteArcSize=1;arcSize=2;fontSize=10;fontColor=#9E9E9E;align=center;html=1;" parent="1" vertex="1">
          <mxGeometry x="689" y="117" width="145" height="66" as="geometry" />
        </mxCell>
        <mxCell id="748" value="&lt;font color=&quot;#000000&quot;&gt;Bitrise Platform&lt;/font&gt;&lt;br&gt;Delivery&lt;br&gt;&lt;hr&gt;" style="dashed=0;connectable=0;html=1;fillColor=#5184F3;strokeColor=none;shape=mxgraph.gcp2.hexIcon;prIcon=cloud_load_balancing;part=1;labelPosition=right;verticalLabelPosition=middle;align=left;verticalAlign=middle;spacingLeft=5;fontColor=#999999;fontSize=12;" parent="747" vertex="1">
          <mxGeometry y="0.5" width="44" height="39" relative="1" as="geometry">
            <mxPoint x="5" y="-19.5" as="offset" />
          </mxGeometry>
        </mxCell>
        <mxCell id="739" value="" style="strokeColor=#dddddd;fillColor=#ffffff;shadow=1;strokeWidth=1;rounded=1;absoluteArcSize=1;arcSize=2;fontSize=10;fontColor=#9E9E9E;align=center;html=1;" parent="1" vertex="1">
          <mxGeometry x="906" y="120" width="150" height="60" as="geometry" />
        </mxCell>
        <mxCell id="740" value="&lt;font color=&quot;#000000&quot;&gt;&lt;span style=&quot;caret-color: rgb(0, 0, 0);&quot;&gt;Starbucks.ipa&lt;/span&gt;&lt;/font&gt;&lt;br&gt;&lt;hr&gt;&lt;span style=&quot;font-size: 11px;&quot;&gt;App Store&lt;br&gt;&lt;/span&gt;" style="dashed=0;connectable=0;html=1;fillColor=#5184F3;strokeColor=none;shape=mxgraph.gcp2.hexIcon;prIcon=compute_engine;part=1;labelPosition=right;verticalLabelPosition=middle;align=left;verticalAlign=top;spacingLeft=5;fontColor=#999999;fontSize=12;spacingTop=-8;" parent="739" vertex="1">
          <mxGeometry width="44" height="39" relative="1" as="geometry">
            <mxPoint x="5" y="7" as="offset" />
          </mxGeometry>
        </mxCell>
        <mxCell id="735" value="" style="strokeColor=#dddddd;fillColor=#ffffff;shadow=1;strokeWidth=1;rounded=1;absoluteArcSize=1;arcSize=2;fontSize=10;fontColor=#9E9E9E;align=center;html=1;" parent="1" vertex="1">
          <mxGeometry x="260" y="388" width="150" height="60" as="geometry" />
        </mxCell>
        <mxCell id="736" value="&lt;font color=&quot;#000000&quot;&gt;Code Repository&lt;/font&gt;&lt;br&gt;DevTools" style="dashed=0;connectable=0;html=1;fillColor=#5184F3;strokeColor=none;shape=mxgraph.gcp2.hexIcon;prIcon=cloud_tools_for_powershell;part=1;labelPosition=right;verticalLabelPosition=middle;align=left;verticalAlign=middle;spacingLeft=5;fontColor=#999999;fontSize=12;" parent="735" vertex="1">
          <mxGeometry y="0.5" width="44" height="39" relative="1" as="geometry">
            <mxPoint x="5" y="-19.5" as="offset" />
          </mxGeometry>
        </mxCell>
        <mxCell id="758" style="edgeStyle=orthogonalEdgeStyle;rounded=0;html=1;labelBackgroundColor=none;startFill=1;startSize=4;endArrow=blockThin;endFill=1;endSize=4;jettySize=auto;orthogonalLoop=1;strokeColor=#4284F3;strokeWidth=2;fontSize=12;fontColor=#000000;align=center;dashed=0;" parent="1" source="735" target="737" edge="1">
          <mxGeometry relative="1" as="geometry" />
        </mxCell>
        <mxCell id="773" value="3" style="shape=ellipse;fillColor=#ffffff;strokeColor=#BDBDBD;strokeWidth=2;shadow=0;gradientColor=none;fontColor=#757575;align=center;html=1;fontStyle=1;spacingTop=-1;" parent="1" vertex="1">
          <mxGeometry x="512" y="350" width="20" height="20" as="geometry" />
        </mxCell>
        <mxCell id="772" value="2" style="shape=ellipse;fillColor=#ffffff;strokeColor=#BDBDBD;strokeWidth=2;shadow=0;gradientColor=none;fontColor=#757575;align=center;html=1;fontStyle=1;spacingTop=-1;" parent="1" vertex="1">
          <mxGeometry x="430" y="389" width="20" height="20" as="geometry" />
        </mxCell>
        <mxCell id="ojXj5y6HiEK-yapRCw0R-791" value="" style="group" vertex="1" connectable="0" parent="1">
          <mxGeometry x="689" y="249.5" width="160" height="60" as="geometry" />
        </mxCell>
        <mxCell id="ojXj5y6HiEK-yapRCw0R-789" value="" style="strokeColor=#dddddd;fillColor=#ffffff;shadow=1;strokeWidth=1;rounded=1;absoluteArcSize=1;arcSize=2;fontSize=10;fontColor=#9E9E9E;align=center;html=1;" vertex="1" parent="ojXj5y6HiEK-yapRCw0R-791">
          <mxGeometry width="160" height="60" as="geometry" />
        </mxCell>
        <mxCell id="ojXj5y6HiEK-yapRCw0R-790" value="&lt;font color=&quot;#000000&quot;&gt;Secure Branch&lt;/font&gt;&lt;br&gt;Repository" style="dashed=0;connectable=0;html=1;fillColor=#5184F3;strokeColor=none;shape=mxgraph.gcp2.hexIcon;prIcon=cloud_tools_for_powershell;part=1;labelPosition=right;verticalLabelPosition=middle;align=left;verticalAlign=middle;spacingLeft=5;fontColor=#999999;fontSize=12;" vertex="1" parent="ojXj5y6HiEK-yapRCw0R-791">
          <mxGeometry x="6" y="10.5" width="44" height="39" as="geometry" />
        </mxCell>
        <mxCell id="ojXj5y6HiEK-yapRCw0R-792" value="" style="group" vertex="1" connectable="0" parent="1">
          <mxGeometry x="472" y="388" width="142" height="60" as="geometry" />
        </mxCell>
        <mxCell id="737" value="" style="strokeColor=#dddddd;fillColor=#ffffff;shadow=1;strokeWidth=1;rounded=1;absoluteArcSize=1;arcSize=2;fontSize=10;fontColor=#9E9E9E;align=center;html=1;" parent="ojXj5y6HiEK-yapRCw0R-792" vertex="1">
          <mxGeometry width="142" height="60" as="geometry" />
        </mxCell>
        <mxCell id="ojXj5y6HiEK-yapRCw0R-788" value="&lt;font color=&quot;#000000&quot;&gt;Release Branch&lt;/font&gt;&lt;br&gt;Repository" style="dashed=0;connectable=0;html=1;fillColor=#5184F3;strokeColor=none;shape=mxgraph.gcp2.hexIcon;prIcon=cloud_tools_for_powershell;part=1;labelPosition=right;verticalLabelPosition=middle;align=left;verticalAlign=middle;spacingLeft=5;fontColor=#999999;fontSize=12;" vertex="1" parent="ojXj5y6HiEK-yapRCw0R-792">
          <mxGeometry x="5.324999999999999" y="10.5" width="39.05" height="39" as="geometry" />
        </mxCell>
        <mxCell id="ojXj5y6HiEK-yapRCw0R-793" value="" style="group" vertex="1" connectable="0" parent="1">
          <mxGeometry x="444" y="210" width="180" height="133" as="geometry" />
        </mxCell>
        <mxCell id="753" value="Devops" style="rounded=1;absoluteArcSize=1;arcSize=2;html=1;strokeColor=none;gradientColor=none;shadow=0;dashed=0;strokeColor=none;fontSize=12;fontColor=#9E9E9E;align=left;verticalAlign=top;spacing=10;spacingTop=-4;fillColor=#E1F5FE;" parent="ojXj5y6HiEK-yapRCw0R-793" vertex="1">
          <mxGeometry x="4" width="180" height="133" as="geometry" />
        </mxCell>
        <mxCell id="745" value="" style="shape=mxgraph.gcp2.doubleRect;strokeColor=#dddddd;fillColor=#ffffff;shadow=1;strokeWidth=1;fontSize=10;fontColor=#9E9E9E;align=center;html=1;" parent="ojXj5y6HiEK-yapRCw0R-793" vertex="1">
          <mxGeometry x="10" y="42.486111111111114" width="158" height="72.04166666666667" as="geometry" />
        </mxCell>
        <mxCell id="746" value="&lt;font color=&quot;#000000&quot;&gt;&lt;span style=&quot;caret-color: rgb(0, 0, 0);&quot;&gt;Workflow&lt;/span&gt;&lt;/font&gt;&lt;br&gt;Strengthen&lt;br&gt;&lt;hr&gt;Integration" style="dashed=0;connectable=0;html=1;fillColor=#5184F3;strokeColor=none;shape=mxgraph.gcp2.hexIcon;prIcon=compute_engine;part=1;labelPosition=right;verticalLabelPosition=middle;align=left;verticalAlign=top;spacingLeft=5;fontColor=#999999;fontSize=12;spacingTop=-8;" parent="745" vertex="1">
          <mxGeometry width="44" height="39" relative="1" as="geometry">
            <mxPoint x="5" y="7" as="offset" />
          </mxGeometry>
        </mxCell>
        <mxCell id="ojXj5y6HiEK-yapRCw0R-795" style="edgeStyle=orthogonalEdgeStyle;rounded=0;html=1;labelBackgroundColor=none;startFill=1;startSize=4;endArrow=blockThin;endFill=1;endSize=4;jettySize=auto;orthogonalLoop=1;strokeColor=#4284F3;strokeWidth=2;fontSize=12;fontColor=#000000;align=center;dashed=0;" edge="1" parent="1">
          <mxGeometry relative="1" as="geometry">
            <mxPoint x="625" y="287" as="sourcePoint" />
            <mxPoint x="687" y="287" as="targetPoint" />
          </mxGeometry>
        </mxCell>
        <mxCell id="ojXj5y6HiEK-yapRCw0R-796" style="edgeStyle=orthogonalEdgeStyle;rounded=0;html=1;labelBackgroundColor=none;startFill=1;startSize=4;endArrow=blockThin;endFill=1;endSize=4;jettySize=auto;orthogonalLoop=1;strokeColor=#4284F3;strokeWidth=2;fontSize=12;fontColor=#000000;align=center;dashed=0;" edge="1" parent="1">
          <mxGeometry relative="1" as="geometry">
            <mxPoint x="765" y="250" as="sourcePoint" />
            <mxPoint x="767" y="204" as="targetPoint" />
            <Array as="points">
              <mxPoint x="767" y="250" />
            </Array>
          </mxGeometry>
        </mxCell>
        <mxCell id="ojXj5y6HiEK-yapRCw0R-797" style="edgeStyle=orthogonalEdgeStyle;rounded=0;html=1;labelBackgroundColor=none;startFill=1;startSize=4;endArrow=blockThin;endFill=1;endSize=4;jettySize=auto;orthogonalLoop=1;strokeColor=#4284F3;strokeWidth=2;fontSize=12;fontColor=#000000;align=center;dashed=0;exitX=0.997;exitY=0.567;exitDx=0;exitDy=0;exitPerimeter=0;" edge="1" parent="1" source="754">
          <mxGeometry relative="1" as="geometry">
            <mxPoint x="662" y="448" as="sourcePoint" />
            <mxPoint x="900" y="152" as="targetPoint" />
          </mxGeometry>
        </mxCell>
        <mxCell id="ojXj5y6HiEK-yapRCw0R-798" style="edgeStyle=orthogonalEdgeStyle;rounded=0;html=1;labelBackgroundColor=none;startFill=1;startSize=4;endArrow=blockThin;endFill=1;endSize=4;jettySize=auto;orthogonalLoop=1;strokeColor=#4284F3;strokeWidth=2;fontSize=12;fontColor=#000000;align=center;dashed=0;entryX=0.561;entryY=1.015;entryDx=0;entryDy=0;entryPerimeter=0;" edge="1" parent="1">
          <mxGeometry relative="1" as="geometry">
            <mxPoint x="544" y="384" as="sourcePoint" />
            <mxPoint x="543.98" y="348.995" as="targetPoint" />
          </mxGeometry>
        </mxCell>
      </root>
    </mxGraphModel>
  </diagram>
</mxfile>
